<?xml version="1.0" encoding="utf-8"?>
<!-- Generator: Adobe Illustrator 18.1.1, SVG Export Plug-In . SVG Version: 6.00 Build 0)  -->
<svg version="1.1" xmlns="http://www.w3.org/2000/svg" xmlns:xlink="http://www.w3.org/1999/xlink" x="0px" y="0px"
	 viewBox="0 0 452.3 80" enable-background="new 0 0 452.3 80" xml:space="preserve">
<g id="bg">
</g>
<g id="mv">
</g>
<g id="sub_base">
</g>
<g id="img" display="none">
</g>
<g id="contents">
	<g>
		<g>
			<path fill="#1A1A1A" d="M116.2,25.5l7.8,7.6c1.3,1.3,2.4,2.1,3.3,2.6c0.9,0.5,1.8,0.7,2.7,0.8V37h-10v-0.6c0.6,0,1-0.1,1.3-0.3
				c0.3-0.2,0.4-0.4,0.4-0.7s0-0.5-0.1-0.7c-0.1-0.2-0.4-0.6-1-1.1l-7.3-7.1v6.7c0,1,0.1,1.7,0.2,2.1c0.1,0.3,0.3,0.5,0.7,0.7
				c0.4,0.2,0.9,0.4,1.4,0.4h0.7V37h-9v-0.6h0.7c0.9,0,1.5-0.2,1.9-0.7c0.2-0.3,0.4-1.1,0.4-2.3V20c0-1-0.1-1.7-0.2-2.1
				c-0.1-0.2-0.3-0.5-0.6-0.6c-0.5-0.2-0.9-0.4-1.4-0.4h-0.7v-0.6h9v0.6h-0.7c-0.5,0-1,0.1-1.4,0.4c-0.3,0.2-0.5,0.4-0.7,0.7
				c-0.1,0.3-0.2,1-0.2,2v6.3c0.2-0.2,0.9-0.8,2.1-1.9c3.1-2.8,4.9-4.6,5.6-5.5c0.3-0.4,0.4-0.8,0.4-1.1c0-0.2-0.1-0.4-0.3-0.6
				c-0.2-0.2-0.6-0.3-1.1-0.3h-0.5v-0.6h7.8v0.6c-0.5,0-0.9,0.1-1.2,0.2c-0.4,0.1-0.8,0.3-1.4,0.6c-0.5,0.3-1.2,0.8-2,1.5
				c-0.2,0.2-1.3,1.2-3.2,3.1L116.2,25.5z"/>
			<path fill="#1A1A1A" d="M138.1,22.6v11.2c0,0.9,0.1,1.5,0.2,1.7c0.1,0.3,0.3,0.5,0.6,0.6s0.7,0.2,1.4,0.2V37h-6.9v-0.5
				c0.7,0,1.2-0.1,1.4-0.2s0.4-0.4,0.6-0.7c0.1-0.3,0.2-0.9,0.2-1.8v-5.4c0-1.5,0-2.5-0.1-2.9c-0.1-0.3-0.2-0.6-0.3-0.7
				c-0.2-0.1-0.4-0.2-0.6-0.2c-0.3,0-0.6,0.1-1.1,0.2l-0.2-0.5l4.3-1.7H138.1z M136.8,15.3c0.4,0,0.8,0.2,1.1,0.4
				c0.3,0.3,0.5,0.7,0.5,1.1c0,0.4-0.2,0.8-0.5,1.1c-0.3,0.3-0.7,0.5-1.1,0.5c-0.4,0-0.8-0.2-1.1-0.5c-0.3-0.3-0.5-0.7-0.5-1.1
				c0-0.4,0.2-0.8,0.5-1.1C136,15.5,136.3,15.3,136.8,15.3z"/>
			<path fill="#1A1A1A" d="M143.8,23h6.6v0.6h-0.3c-0.5,0-0.8,0.1-1.1,0.3c-0.2,0.2-0.4,0.4-0.4,0.7c0,0.4,0.2,0.9,0.5,1.6l3.5,7
				l3.2-7.7c0.2-0.4,0.3-0.8,0.3-1.2c0-0.2,0-0.3-0.1-0.4c-0.1-0.1-0.2-0.2-0.4-0.3c-0.2-0.1-0.5-0.1-0.9-0.1V23h4.6v0.6
				c-0.4,0-0.7,0.1-0.9,0.2s-0.4,0.4-0.7,0.7c-0.1,0.1-0.3,0.5-0.5,1.2l-5.8,13.9c-0.6,1.4-1.3,2.4-2.2,3.1c-0.9,0.7-1.8,1-2.6,1
				c-0.6,0-1.1-0.2-1.5-0.5c-0.4-0.3-0.6-0.7-0.6-1.2c0-0.4,0.1-0.8,0.4-1c0.3-0.3,0.7-0.4,1.2-0.4c0.3,0,0.8,0.1,1.4,0.3
				c0.4,0.2,0.7,0.2,0.8,0.2c0.3,0,0.7-0.2,1-0.5c0.4-0.3,0.7-0.9,1.1-1.8l1-2.4l-5.1-10.5c-0.2-0.3-0.4-0.7-0.7-1.2
				c-0.3-0.4-0.5-0.6-0.6-0.7c-0.2-0.2-0.6-0.3-1.2-0.4V23z"/>
			<path fill="#1A1A1A" d="M170,22.6c2.2,0,3.9,0.8,5.2,2.4c1.1,1.4,1.7,2.9,1.7,4.7c0,1.3-0.3,2.5-0.9,3.8
				c-0.6,1.3-1.5,2.2-2.5,2.9c-1.1,0.7-2.3,1-3.6,1c-2.1,0-3.9-0.8-5.1-2.5c-1.1-1.4-1.6-3-1.6-4.8c0-1.3,0.3-2.6,1-3.8
				c0.6-1.3,1.5-2.2,2.6-2.8C167.7,22.9,168.8,22.6,170,22.6z M169.5,23.6c-0.6,0-1.1,0.2-1.7,0.5c-0.6,0.3-1,0.9-1.3,1.7
				c-0.3,0.8-0.5,1.8-0.5,3.1c0,2,0.4,3.8,1.2,5.3c0.8,1.5,1.9,2.2,3.3,2.2c1,0,1.8-0.4,2.5-1.2c0.7-0.8,1-2.2,1-4.2
				c0-2.5-0.5-4.4-1.6-5.9C171.6,24.1,170.7,23.6,169.5,23.6z"/>
			<path fill="#1A1A1A" d="M185.7,25.6c1-1,1.6-1.6,1.8-1.8c0.5-0.4,1-0.7,1.5-0.9c0.5-0.2,1.1-0.3,1.6-0.3c0.9,0,1.7,0.3,2.3,0.8
				c0.6,0.5,1.1,1.2,1.3,2.2c1.1-1.2,2-2,2.7-2.4c0.7-0.4,1.5-0.6,2.3-0.6c0.8,0,1.4,0.2,2,0.6c0.6,0.4,1.1,1,1.4,1.9
				c0.2,0.6,0.3,1.5,0.3,2.8v6c0,0.9,0.1,1.5,0.2,1.8c0.1,0.2,0.3,0.4,0.6,0.6c0.3,0.2,0.7,0.2,1.4,0.2V37h-7v-0.5h0.3
				c0.6,0,1.1-0.1,1.4-0.4c0.2-0.2,0.4-0.4,0.5-0.8c0-0.2,0.1-0.7,0.1-1.5v-6c0-1.1-0.1-1.9-0.4-2.4c-0.4-0.7-1.1-1-1.9-1
				c-0.6,0-1.1,0.1-1.7,0.4c-0.6,0.3-1.2,0.8-2,1.5l0,0.2l0,0.7v6.7c0,1,0.1,1.6,0.2,1.8c0.1,0.2,0.3,0.4,0.6,0.6
				c0.3,0.2,0.8,0.2,1.5,0.2V37h-7.2v-0.5c0.8,0,1.3-0.1,1.6-0.3c0.3-0.2,0.5-0.5,0.6-0.8c0.1-0.2,0.1-0.7,0.1-1.5v-6
				c0-1.1-0.2-2-0.5-2.5c-0.5-0.7-1.1-1-1.9-1c-0.6,0-1.1,0.1-1.7,0.4c-0.9,0.4-1.5,1-2,1.5v7.5c0,0.9,0.1,1.5,0.2,1.8
				c0.1,0.3,0.3,0.5,0.6,0.6c0.3,0.1,0.8,0.2,1.5,0.2V37H181v-0.5c0.7,0,1.1-0.1,1.4-0.2c0.3-0.1,0.5-0.4,0.6-0.7
				c0.1-0.3,0.2-0.9,0.2-1.7v-5.3c0-1.5,0-2.5-0.1-3c-0.1-0.3-0.2-0.6-0.3-0.7c-0.2-0.1-0.4-0.2-0.6-0.2c-0.3,0-0.6,0.1-1,0.2
				l-0.2-0.5l4.3-1.7h0.7V25.6z"/>
			<path fill="#1A1A1A" d="M213.8,22.6v11.2c0,0.9,0.1,1.5,0.2,1.7c0.1,0.3,0.3,0.5,0.6,0.6c0.3,0.1,0.7,0.2,1.4,0.2V37H209v-0.5
				c0.7,0,1.2-0.1,1.4-0.2c0.2-0.1,0.4-0.4,0.6-0.7c0.1-0.3,0.2-0.9,0.2-1.8v-5.4c0-1.5,0-2.5-0.1-2.9c-0.1-0.3-0.2-0.6-0.3-0.7
				c-0.2-0.1-0.4-0.2-0.6-0.2c-0.3,0-0.6,0.1-1.1,0.2l-0.2-0.5l4.3-1.7H213.8z M212.5,15.3c0.4,0,0.8,0.2,1.1,0.4
				c0.3,0.3,0.5,0.7,0.5,1.1c0,0.4-0.2,0.8-0.5,1.1c-0.3,0.3-0.7,0.5-1.1,0.5c-0.4,0-0.8-0.2-1.1-0.5c-0.3-0.3-0.5-0.7-0.5-1.1
				c0-0.4,0.2-0.8,0.5-1.1C211.7,15.5,212,15.3,212.5,15.3z"/>
			<path fill="#1A1A1A" d="M232.6,32.7l-0.2,4.3h-12.6v-0.5l9.5-12.4h-4.7c-1,0-1.7,0.1-2,0.2c-0.3,0.1-0.6,0.4-0.8,0.7
				c-0.3,0.5-0.4,1.1-0.5,1.9h-0.6l0.1-3.9h12v0.6L223.3,36h5.2c1.1,0,1.8-0.1,2.2-0.3s0.7-0.5,0.9-0.9c0.2-0.3,0.3-1,0.4-2.1H232.6
				z"/>
			<path fill="#1A1A1A" d="M249.5,23v8.5c0,1.6,0,2.6,0.1,3c0.1,0.4,0.2,0.6,0.4,0.8c0.2,0.1,0.4,0.2,0.6,0.2c0.3,0,0.7-0.1,1.1-0.3
				l0.2,0.5l-4.3,1.7h-0.7v-3c-1.2,1.3-2.2,2.1-2.8,2.5c-0.6,0.3-1.3,0.5-2,0.5c-0.8,0-1.5-0.2-2.1-0.7c-0.6-0.5-1-1-1.2-1.7
				c-0.2-0.7-0.3-1.7-0.3-3v-6.2c0-0.7-0.1-1.1-0.2-1.4c-0.1-0.3-0.4-0.4-0.6-0.6c-0.3-0.1-0.8-0.2-1.6-0.2V23h5v9.4
				c0,1.3,0.2,2.2,0.7,2.6c0.5,0.4,1,0.6,1.7,0.6c0.4,0,1-0.1,1.5-0.4c0.6-0.3,1.2-0.8,2-1.6v-7.9c0-0.8-0.1-1.3-0.4-1.6
				c-0.3-0.3-0.9-0.4-1.8-0.4V23H249.5z"/>
			<path fill="#1A1A1A" d="M255.7,28.8h8v2.3h-8V28.8z"/>
			<path fill="#1A1A1A" d="M278.6,35.4c-0.7,0.7-1.4,1.2-2,1.5c-0.7,0.3-1.4,0.5-2.1,0.5c-1.6,0-2.9-0.6-4.1-1.9
				c-1.2-1.3-1.7-2.9-1.7-4.9s0.6-3.8,1.9-5.5c1.3-1.7,2.9-2.5,5-2.5c1.3,0,2.3,0.4,3.1,1.2v-2.6c0-1.6,0-2.6-0.1-2.9
				c-0.1-0.4-0.2-0.6-0.4-0.7c-0.2-0.1-0.4-0.2-0.6-0.2c-0.3,0-0.6,0.1-1.1,0.2l-0.2-0.5l4.2-1.7h0.7v16.2c0,1.6,0,2.6,0.1,3
				c0.1,0.4,0.2,0.6,0.4,0.8c0.2,0.1,0.4,0.2,0.6,0.2c0.3,0,0.7-0.1,1.1-0.3l0.2,0.5l-4.2,1.7h-0.7V35.4z M278.6,34.4v-7.2
				c-0.1-0.7-0.2-1.3-0.6-1.9c-0.3-0.6-0.7-1-1.2-1.3c-0.5-0.3-1-0.4-1.5-0.4c-0.9,0-1.7,0.4-2.4,1.2c-0.9,1.1-1.4,2.6-1.4,4.6
				c0,2.1,0.5,3.6,1.4,4.7c0.9,1.1,1.9,1.6,3.1,1.6C276.9,35.8,277.8,35.3,278.6,34.4z"/>
			<path fill="#1A1A1A" d="M289.4,28.3c0,2.1,0.5,3.7,1.5,4.9c1,1.2,2.3,1.8,3.7,1.8c0.9,0,1.7-0.3,2.4-0.8c0.7-0.5,1.3-1.4,1.7-2.6
				l0.5,0.3c-0.2,1.4-0.8,2.7-1.9,3.8c-1,1.1-2.4,1.7-3.9,1.7c-1.7,0-3.2-0.7-4.4-2c-1.2-1.3-1.8-3.1-1.8-5.3c0-2.4,0.6-4.3,1.9-5.6
				c1.2-1.3,2.8-2,4.7-2c1.6,0,2.9,0.5,3.9,1.5c1,1,1.5,2.4,1.5,4.1H289.4z M289.4,27.4h6.6c-0.1-0.9-0.2-1.5-0.3-1.9
				c-0.3-0.6-0.6-1-1.2-1.3c-0.5-0.3-1.1-0.5-1.6-0.5c-0.9,0-1.6,0.3-2.3,1C289.9,25.3,289.5,26.2,289.4,27.4z"/>
			<path fill="#1A1A1A" d="M307.9,22.6v3.1c1.2-2.1,2.4-3.1,3.7-3.1c0.6,0,1,0.2,1.4,0.5c0.4,0.3,0.6,0.7,0.6,1.2
				c0,0.4-0.1,0.7-0.4,1c-0.3,0.3-0.6,0.4-1,0.4c-0.4,0-0.8-0.2-1.2-0.5c-0.5-0.4-0.8-0.5-1-0.5c-0.2,0-0.4,0.1-0.6,0.3
				c-0.5,0.4-0.9,1.1-1.4,2.1v6.7c0,0.8,0.1,1.4,0.3,1.8c0.1,0.3,0.4,0.5,0.7,0.7c0.3,0.2,0.8,0.3,1.5,0.3V37h-7.3v-0.5
				c0.7,0,1.3-0.1,1.6-0.3c0.3-0.2,0.4-0.4,0.5-0.8c0.1-0.2,0.1-0.7,0.1-1.5v-5.4c0-1.6,0-2.6-0.1-2.9c-0.1-0.3-0.2-0.5-0.4-0.7
				c-0.2-0.1-0.4-0.2-0.7-0.2c-0.3,0-0.7,0.1-1.1,0.2l-0.2-0.5l4.3-1.7H307.9z"/>
			<path fill="#1A1A1A" d="M324.9,35c-1.5,1.1-2.4,1.7-2.8,1.9c-0.6,0.3-1.2,0.4-1.8,0.4c-1,0-1.8-0.3-2.4-1c-0.6-0.7-1-1.5-1-2.6
				c0-0.7,0.2-1.3,0.5-1.8c0.4-0.7,1.2-1.3,2.2-2s2.8-1.4,5.3-2.2v-0.5c0-1.4-0.2-2.3-0.7-2.9c-0.5-0.5-1.1-0.8-2-0.8
				c-0.7,0-1.2,0.2-1.6,0.5c-0.4,0.3-0.6,0.7-0.6,1.2l0,0.9c0,0.5-0.1,0.8-0.4,1.1c-0.2,0.3-0.6,0.4-1,0.4c-0.4,0-0.7-0.1-0.9-0.4
				s-0.4-0.6-0.4-1.1c0-0.9,0.5-1.7,1.4-2.4c0.9-0.7,2.2-1.1,3.8-1.1c1.3,0,2.3,0.2,3.1,0.6c0.6,0.3,1.1,0.8,1.4,1.5
				c0.2,0.4,0.3,1.3,0.3,2.7v4.7c0,1.3,0,2.1,0.1,2.4c0.1,0.3,0.1,0.5,0.3,0.6c0.1,0.1,0.3,0.2,0.4,0.2c0.2,0,0.3,0,0.4-0.1
				c0.2-0.1,0.6-0.5,1.3-1.1V35c-1.2,1.5-2.3,2.3-3.3,2.3c-0.5,0-0.9-0.2-1.2-0.5S325,35.8,324.9,35z M324.9,34v-5.3
				c-1.6,0.6-2.6,1-3,1.3c-0.8,0.4-1.4,0.9-1.8,1.4c-0.4,0.5-0.5,1-0.5,1.6c0,0.7,0.2,1.3,0.7,1.8c0.4,0.5,1,0.7,1.5,0.7
				C322.6,35.5,323.7,35,324.9,34z"/>
			<path fill="#1A1A1A" d="M361.5,16.3l0.2,4.9h-0.6c-0.1-0.9-0.3-1.5-0.5-1.8c-0.3-0.6-0.8-1-1.3-1.3c-0.5-0.3-1.2-0.4-2.1-0.4h-3
				v15.8c0,1.3,0.1,2.1,0.4,2.4c0.4,0.4,1,0.6,1.8,0.6h0.7V37h-8.9v-0.6h0.7c0.9,0,1.5-0.3,1.9-0.8c0.2-0.3,0.3-1.1,0.3-2.2V17.6
				h-2.5c-1,0-1.7,0.1-2.1,0.2c-0.5,0.2-1,0.6-1.4,1.1c-0.4,0.5-0.6,1.3-0.7,2.2h-0.6l0.2-4.9H361.5z"/>
			<path fill="#1A1A1A" d="M368.5,28.3c0,2.1,0.5,3.7,1.5,4.9c1,1.2,2.3,1.8,3.7,1.8c0.9,0,1.7-0.3,2.4-0.8c0.7-0.5,1.3-1.4,1.7-2.6
				l0.5,0.3c-0.2,1.4-0.8,2.7-1.9,3.8c-1,1.1-2.4,1.7-3.9,1.7c-1.7,0-3.2-0.7-4.4-2c-1.2-1.3-1.8-3.1-1.8-5.3c0-2.4,0.6-4.3,1.9-5.6
				c1.2-1.3,2.8-2,4.7-2c1.6,0,2.9,0.5,3.9,1.5c1,1,1.5,2.4,1.5,4.1H368.5z M368.5,27.4h6.6c-0.1-0.9-0.2-1.5-0.3-1.9
				c-0.3-0.6-0.6-1-1.2-1.3c-0.5-0.3-1.1-0.5-1.6-0.5c-0.9,0-1.6,0.3-2.3,1C369,25.3,368.6,26.2,368.5,27.4z"/>
			<path fill="#1A1A1A" d="M387,25.6c1-1,1.6-1.6,1.8-1.8c0.5-0.4,1-0.7,1.5-0.9c0.5-0.2,1.1-0.3,1.6-0.3c0.9,0,1.7,0.3,2.3,0.8
				c0.6,0.5,1.1,1.2,1.3,2.2c1.1-1.2,2-2,2.7-2.4c0.7-0.4,1.5-0.6,2.3-0.6c0.8,0,1.4,0.2,2,0.6c0.6,0.4,1,1,1.4,1.9
				c0.2,0.6,0.3,1.5,0.3,2.8v6c0,0.9,0.1,1.5,0.2,1.8c0.1,0.2,0.3,0.4,0.6,0.6c0.3,0.2,0.7,0.2,1.4,0.2V37h-7v-0.5h0.3
				c0.6,0,1.1-0.1,1.4-0.4c0.2-0.2,0.4-0.4,0.5-0.8c0-0.2,0.1-0.7,0.1-1.5v-6c0-1.1-0.1-1.9-0.4-2.4c-0.4-0.7-1.1-1-1.9-1
				c-0.5,0-1.1,0.1-1.7,0.4c-0.6,0.3-1.2,0.8-2,1.5l0,0.2l0,0.7v6.7c0,1,0.1,1.6,0.2,1.8c0.1,0.2,0.3,0.4,0.6,0.6
				c0.3,0.2,0.8,0.2,1.5,0.2V37h-7.2v-0.5c0.8,0,1.3-0.1,1.6-0.3c0.3-0.2,0.5-0.5,0.6-0.8c0.1-0.2,0.1-0.7,0.1-1.5v-6
				c0-1.1-0.2-2-0.5-2.5c-0.5-0.7-1.1-1-1.9-1c-0.6,0-1.1,0.1-1.7,0.4c-0.9,0.4-1.5,1-2,1.5v7.5c0,0.9,0.1,1.5,0.2,1.8
				c0.1,0.3,0.3,0.5,0.6,0.6c0.3,0.1,0.8,0.2,1.5,0.2V37h-7.1v-0.5c0.7,0,1.1-0.1,1.4-0.2c0.3-0.1,0.5-0.4,0.6-0.7
				c0.1-0.3,0.2-0.9,0.2-1.7v-5.3c0-1.5,0-2.5-0.1-3c-0.1-0.3-0.2-0.6-0.3-0.7c-0.2-0.1-0.4-0.2-0.6-0.2c-0.3,0-0.6,0.1-1,0.2
				l-0.2-0.5l4.3-1.7h0.7V25.6z"/>
			<path fill="#1A1A1A" d="M409.1,24.4l4.4-1.7h0.6v3.3c0.7-1.2,1.5-2.1,2.2-2.6c0.7-0.5,1.5-0.7,2.3-0.7c1.4,0,2.6,0.5,3.6,1.6
				c1.2,1.3,1.8,3.1,1.8,5.2c0,2.4-0.7,4.4-2.1,6c-1.2,1.3-2.6,1.9-4.4,1.9c-0.8,0-1.4-0.1-2-0.3c-0.4-0.2-0.9-0.5-1.4-0.9v4.3
				c0,1,0.1,1.6,0.2,1.8s0.3,0.5,0.6,0.6c0.3,0.2,0.8,0.2,1.6,0.2v0.6H409v-0.6h0.4c0.6,0,1.1-0.1,1.5-0.3c0.2-0.1,0.4-0.3,0.5-0.5
				s0.2-0.9,0.2-1.9V27.1c0-0.9,0-1.5-0.1-1.7c-0.1-0.2-0.2-0.4-0.4-0.5s-0.4-0.2-0.7-0.2c-0.2,0-0.6,0.1-0.9,0.2L409.1,24.4z
				 M414.1,26.8v5.2c0,1.1,0,1.9,0.1,2.2c0.1,0.6,0.5,1.1,1.1,1.6c0.6,0.4,1.3,0.7,2.1,0.7c1,0,1.9-0.4,2.5-1.2
				c0.8-1,1.3-2.5,1.3-4.4c0-2.1-0.5-3.8-1.4-4.9c-0.7-0.8-1.5-1.2-2.4-1.2c-0.5,0-1,0.1-1.5,0.4C415.6,25.4,415,25.9,414.1,26.8z"
				/>
			<path fill="#1A1A1A" d="M433.5,15.3v18.5c0,0.9,0.1,1.5,0.2,1.7c0.1,0.3,0.3,0.5,0.6,0.6c0.3,0.1,0.8,0.2,1.5,0.2V37h-7v-0.5
				c0.7,0,1.1-0.1,1.3-0.2c0.2-0.1,0.4-0.4,0.6-0.7c0.1-0.3,0.2-0.9,0.2-1.8V21.2c0-1.6,0-2.5-0.1-2.9c-0.1-0.4-0.2-0.6-0.4-0.7
				c-0.2-0.1-0.4-0.2-0.6-0.2c-0.3,0-0.6,0.1-1,0.2l-0.3-0.5l4.2-1.7H433.5z"/>
			<path fill="#1A1A1A" d="M442.4,28.3c0,2.1,0.5,3.7,1.5,4.9c1,1.2,2.3,1.8,3.7,1.8c0.9,0,1.7-0.3,2.4-0.8c0.7-0.5,1.3-1.4,1.7-2.6
				l0.5,0.3c-0.2,1.4-0.9,2.7-1.9,3.8c-1,1.1-2.4,1.7-3.9,1.7c-1.7,0-3.2-0.7-4.4-2c-1.2-1.3-1.8-3.1-1.8-5.3c0-2.4,0.6-4.3,1.9-5.6
				c1.3-1.3,2.8-2,4.7-2c1.6,0,2.9,0.5,3.9,1.5c1,1,1.5,2.4,1.5,4.1H442.4z M442.4,27.4h6.6c-0.1-0.9-0.2-1.5-0.3-1.9
				c-0.3-0.6-0.6-1-1.2-1.3c-0.5-0.3-1-0.5-1.6-0.5c-0.9,0-1.6,0.3-2.3,1C442.9,25.3,442.5,26.2,442.4,27.4z"/>
		</g>
		<g>
			<path fill="#1A1A1A" d="M114.5,65.5l6.1,6.1c1,1,1.9,1.7,2.6,2c0.7,0.4,1.4,0.6,2.1,0.6v0.5h-7.9v-0.5c0.5,0,0.8-0.1,1-0.2
				c0.2-0.2,0.3-0.3,0.3-0.5c0-0.2,0-0.4-0.1-0.5s-0.3-0.4-0.8-0.9l-5.7-5.6v5.3c0,0.8,0.1,1.4,0.2,1.7c0.1,0.2,0.3,0.4,0.5,0.5
				c0.3,0.2,0.7,0.3,1.1,0.3h0.6v0.5h-7v-0.5h0.6c0.7,0,1.2-0.2,1.5-0.6c0.2-0.3,0.3-0.9,0.3-1.9V61c0-0.8-0.1-1.4-0.2-1.7
				c-0.1-0.2-0.2-0.4-0.5-0.5c-0.4-0.2-0.7-0.3-1.1-0.3h-0.6v-0.5h7v0.5H114c-0.4,0-0.8,0.1-1.1,0.3c-0.3,0.1-0.4,0.3-0.5,0.6
				c-0.1,0.3-0.1,0.8-0.1,1.6v5.1c0.2-0.2,0.7-0.7,1.7-1.5c2.4-2.2,3.9-3.7,4.4-4.4c0.2-0.3,0.3-0.6,0.3-0.9c0-0.2-0.1-0.4-0.3-0.5
				c-0.2-0.1-0.5-0.2-0.9-0.2h-0.4v-0.5h6.1v0.5c-0.4,0-0.7,0.1-1,0.1c-0.3,0.1-0.7,0.3-1.1,0.5c-0.4,0.3-0.9,0.7-1.6,1.2
				c-0.2,0.2-1,1-2.5,2.5L114.5,65.5z"/>
			<path fill="#1A1A1A" d="M126,63.5h5.2v0.5H131c-0.4,0-0.6,0.1-0.8,0.2c-0.2,0.2-0.3,0.4-0.3,0.6c0,0.3,0.1,0.8,0.4,1.3l2.7,5.6
				l2.5-6.2c0.1-0.3,0.2-0.7,0.2-1c0-0.1,0-0.3-0.1-0.3c-0.1-0.1-0.2-0.2-0.3-0.2s-0.4-0.1-0.7-0.1v-0.5h3.6v0.5
				c-0.3,0-0.5,0.1-0.7,0.2c-0.2,0.1-0.3,0.3-0.5,0.5c-0.1,0.1-0.2,0.4-0.4,0.9L132,76.7c-0.4,1.1-1,1.9-1.7,2.4
				c-0.7,0.6-1.4,0.8-2.1,0.8c-0.5,0-0.9-0.1-1.2-0.4c-0.3-0.3-0.5-0.6-0.5-1c0-0.3,0.1-0.6,0.3-0.8c0.2-0.2,0.5-0.3,0.9-0.3
				c0.3,0,0.6,0.1,1.1,0.3c0.3,0.1,0.5,0.2,0.6,0.2c0.2,0,0.5-0.1,0.8-0.4c0.3-0.3,0.6-0.7,0.9-1.5l0.8-1.9l-4-8.4
				c-0.1-0.3-0.3-0.6-0.6-0.9c-0.2-0.3-0.4-0.5-0.5-0.6c-0.2-0.1-0.5-0.2-0.9-0.3V63.5z"/>
			<path fill="#1A1A1A" d="M146.1,63.2c1.7,0,3,0.6,4.1,1.9c0.9,1.1,1.3,2.4,1.3,3.8c0,1-0.2,2-0.7,3c-0.5,1-1.1,1.8-2,2.3
				C148,74.7,147,75,146,75c-1.7,0-3-0.7-4-2c-0.8-1.1-1.3-2.4-1.3-3.8c0-1,0.3-2,0.8-3.1c0.5-1,1.2-1.8,2-2.2
				C144.3,63.4,145.2,63.2,146.1,63.2z M145.8,63.9c-0.4,0-0.9,0.1-1.3,0.4s-0.8,0.7-1.1,1.3s-0.4,1.5-0.4,2.5c0,1.6,0.3,3,1,4.2
				s1.5,1.8,2.6,1.8c0.8,0,1.4-0.3,1.9-1c0.5-0.6,0.8-1.8,0.8-3.4c0-2-0.4-3.5-1.3-4.7C147.4,64.3,146.7,63.9,145.8,63.9z"/>
			<path fill="#1A1A1A" d="M159,59.8v3.7h2.6v0.9H159v7.2c0,0.7,0.1,1.2,0.3,1.5c0.2,0.3,0.5,0.4,0.8,0.4c0.3,0,0.5-0.1,0.8-0.2
				c0.3-0.2,0.4-0.4,0.6-0.7h0.5c-0.3,0.8-0.7,1.4-1.2,1.8c-0.5,0.4-1.1,0.6-1.6,0.6c-0.4,0-0.7-0.1-1.1-0.3s-0.6-0.5-0.8-0.9
				c-0.2-0.4-0.3-1-0.3-1.8v-7.5h-1.8v-0.4c0.4-0.2,0.9-0.5,1.4-0.9c0.5-0.4,0.9-0.9,1.2-1.5c0.2-0.3,0.4-0.9,0.8-1.7H159z"/>
			<path fill="#1A1A1A" d="M170.7,63.2c1.7,0,3,0.6,4.1,1.9c0.9,1.1,1.3,2.4,1.3,3.8c0,1-0.2,2-0.7,3c-0.5,1-1.1,1.8-2,2.3
				c-0.8,0.5-1.8,0.8-2.8,0.8c-1.7,0-3-0.7-4-2c-0.8-1.1-1.3-2.4-1.3-3.8c0-1,0.3-2,0.8-3.1c0.5-1,1.2-1.8,2-2.2
				C168.9,63.4,169.8,63.2,170.7,63.2z M170.3,63.9c-0.4,0-0.9,0.1-1.3,0.4s-0.8,0.7-1.1,1.3s-0.4,1.5-0.4,2.5c0,1.6,0.3,3,1,4.2
				s1.5,1.8,2.6,1.8c0.8,0,1.4-0.3,1.9-1s0.8-1.8,0.8-3.4c0-2-0.4-3.5-1.3-4.7C171.9,64.3,171.2,63.9,170.3,63.9z"/>
			<path fill="#1A1A1A" d="M180.5,78.8v-0.5c0.8-0.3,1.5-0.7,1.9-1.3c0.5-0.6,0.7-1.2,0.7-1.8c0-0.2,0-0.3-0.1-0.4
				c-0.1-0.1-0.1-0.1-0.2-0.1c-0.1,0-0.3,0.1-0.6,0.2c-0.1,0.1-0.3,0.1-0.5,0.1c-0.4,0-0.7-0.1-1-0.4c-0.2-0.2-0.4-0.6-0.4-1
				c0-0.4,0.2-0.7,0.5-1c0.3-0.3,0.7-0.4,1.1-0.4c0.5,0,1,0.2,1.4,0.7c0.4,0.5,0.6,1.1,0.6,1.9c0,0.8-0.3,1.6-0.9,2.3
				C182.7,77.8,181.8,78.4,180.5,78.8z"/>
			<path fill="#1A1A1A" d="M196.2,58.6v-0.5h7.1v0.5h-0.6c-0.7,0-1.2,0.2-1.5,0.6c-0.2,0.3-0.3,0.9-0.3,1.9v8.1c0,1.2-0.1,2.2-0.4,3
				c-0.3,0.8-0.7,1.4-1.4,2c-0.7,0.6-1.5,0.9-2.4,0.9c-0.8,0-1.4-0.2-1.8-0.6c-0.4-0.4-0.7-0.8-0.7-1.3c0-0.4,0.1-0.7,0.3-0.9
				c0.3-0.3,0.6-0.4,0.9-0.4c0.3,0,0.5,0.1,0.7,0.3c0.2,0.2,0.5,0.6,0.8,1.4c0.2,0.4,0.4,0.7,0.7,0.7c0.2,0,0.4-0.1,0.6-0.4
				s0.3-0.7,0.3-1.4V61c0-0.8-0.1-1.4-0.2-1.7c-0.1-0.2-0.3-0.4-0.5-0.5c-0.3-0.2-0.7-0.3-1.1-0.3H196.2z"/>
			<path fill="#1A1A1A" d="M212.5,73c-1.1,0.9-1.9,1.4-2.2,1.5c-0.4,0.2-0.9,0.3-1.4,0.3c-0.8,0-1.4-0.3-1.9-0.8
				c-0.5-0.5-0.7-1.2-0.7-2.1c0-0.5,0.1-1,0.4-1.4c0.3-0.6,0.9-1.1,1.7-1.6c0.8-0.5,2.2-1.1,4.1-1.8v-0.4c0-1.1-0.2-1.9-0.5-2.3
				c-0.4-0.4-0.9-0.6-1.5-0.6c-0.5,0-0.9,0.1-1.2,0.4c-0.3,0.3-0.5,0.6-0.5,1l0,0.7c0,0.4-0.1,0.7-0.3,0.9c-0.2,0.2-0.4,0.3-0.7,0.3
				c-0.3,0-0.5-0.1-0.7-0.3s-0.3-0.5-0.3-0.9c0-0.7,0.4-1.3,1.1-1.9c0.7-0.6,1.7-0.9,3-0.9c1,0,1.8,0.2,2.4,0.5
				c0.5,0.3,0.8,0.6,1.1,1.2c0.1,0.3,0.2,1.1,0.2,2.1v3.8c0,1.1,0,1.7,0.1,2s0.1,0.4,0.2,0.5c0.1,0.1,0.2,0.1,0.3,0.1
				c0.1,0,0.2,0,0.3-0.1c0.2-0.1,0.5-0.4,1-0.9V73c-0.9,1.2-1.8,1.8-2.6,1.8c-0.4,0-0.7-0.1-1-0.4C212.7,74.2,212.5,73.7,212.5,73z
				 M212.5,72.2V68c-1.2,0.5-2,0.8-2.4,1c-0.6,0.4-1.1,0.7-1.4,1.1c-0.3,0.4-0.4,0.8-0.4,1.3c0,0.6,0.2,1.1,0.5,1.5
				c0.3,0.4,0.8,0.6,1.2,0.6C210.7,73.5,211.5,73.1,212.5,72.2z"/>
			<path fill="#1A1A1A" d="M218.9,64.6l3.4-1.4h0.5v2.6c0.6-1,1.2-1.7,1.7-2.1s1.2-0.6,1.8-0.6c1.1,0,2.1,0.4,2.8,1.3
				c0.9,1.1,1.4,2.5,1.4,4.2c0,1.9-0.6,3.5-1.7,4.8c-0.9,1-2.1,1.5-3.4,1.5c-0.6,0-1.1-0.1-1.6-0.3c-0.3-0.1-0.7-0.4-1.1-0.7v3.4
				c0,0.8,0,1.2,0.1,1.5c0.1,0.2,0.3,0.4,0.5,0.5c0.2,0.1,0.7,0.2,1.3,0.2V80h-5.8v-0.5h0.3c0.4,0,0.8-0.1,1.1-0.3
				c0.2-0.1,0.3-0.2,0.4-0.4c0.1-0.2,0.1-0.7,0.1-1.5V66.8c0-0.7,0-1.2-0.1-1.4s-0.2-0.3-0.3-0.4s-0.3-0.1-0.6-0.1
				c-0.2,0-0.4,0.1-0.7,0.2L218.9,64.6z M222.8,66.5v4.2c0,0.9,0,1.5,0.1,1.8c0.1,0.5,0.4,0.9,0.8,1.2s1,0.5,1.7,0.5
				c0.8,0,1.5-0.3,2-1c0.7-0.8,1-2,1-3.5c0-1.7-0.4-3-1.1-3.9c-0.5-0.6-1.1-1-1.9-1c-0.4,0-0.8,0.1-1.2,0.3
				C223.9,65.4,223.4,65.8,222.8,66.5z"/>
			<path fill="#1A1A1A" d="M240.8,73c-1.1,0.9-1.9,1.4-2.2,1.5c-0.4,0.2-0.9,0.3-1.4,0.3c-0.8,0-1.4-0.3-1.9-0.8
				c-0.5-0.5-0.7-1.2-0.7-2.1c0-0.5,0.1-1,0.4-1.4c0.3-0.6,0.9-1.1,1.7-1.6c0.8-0.5,2.2-1.1,4.1-1.8v-0.4c0-1.1-0.2-1.9-0.5-2.3
				c-0.4-0.4-0.9-0.6-1.5-0.6c-0.5,0-0.9,0.1-1.2,0.4c-0.3,0.3-0.5,0.6-0.5,1l0,0.7c0,0.4-0.1,0.7-0.3,0.9c-0.2,0.2-0.4,0.3-0.7,0.3
				c-0.3,0-0.5-0.1-0.7-0.3S235,66.3,235,66c0-0.7,0.4-1.3,1.1-1.9c0.7-0.6,1.7-0.9,3-0.9c1,0,1.8,0.2,2.4,0.5
				c0.5,0.3,0.8,0.6,1.1,1.2c0.1,0.3,0.2,1.1,0.2,2.1v3.8c0,1.1,0,1.7,0.1,2s0.1,0.4,0.2,0.5c0.1,0.1,0.2,0.1,0.3,0.1
				c0.1,0,0.2,0,0.3-0.1c0.2-0.1,0.5-0.4,1-0.9V73c-0.9,1.2-1.8,1.8-2.6,1.8c-0.4,0-0.7-0.1-1-0.4C240.9,74.2,240.8,73.7,240.8,73z
				 M240.8,72.2V68c-1.2,0.5-2,0.8-2.4,1c-0.6,0.4-1.1,0.7-1.4,1.1c-0.3,0.4-0.4,0.8-0.4,1.3c0,0.6,0.2,1.1,0.5,1.5
				c0.3,0.4,0.8,0.6,1.2,0.6C238.9,73.5,239.8,73.1,240.8,72.2z"/>
			<path fill="#1A1A1A" d="M251.1,65.5c1.3-1.6,2.6-2.4,3.7-2.4c0.6,0,1.1,0.2,1.6,0.5c0.4,0.3,0.8,0.8,1,1.5
				c0.2,0.5,0.3,1.2,0.3,2.2v4.8c0,0.7,0.1,1.2,0.2,1.4c0.1,0.2,0.2,0.4,0.4,0.5c0.2,0.1,0.6,0.2,1.1,0.2v0.4h-5.5v-0.4h0.2
				c0.5,0,0.9-0.1,1.1-0.2c0.2-0.2,0.4-0.4,0.4-0.7c0-0.1,0-0.5,0-1.1v-4.6c0-1-0.1-1.8-0.4-2.2c-0.3-0.5-0.7-0.7-1.3-0.7
				c-1,0-1.9,0.5-2.9,1.6v5.9c0,0.8,0,1.2,0.1,1.4c0.1,0.2,0.3,0.4,0.5,0.5c0.2,0.1,0.6,0.2,1.2,0.2v0.4h-5.5v-0.4h0.2
				c0.6,0,1-0.1,1.2-0.4c0.2-0.3,0.3-0.8,0.3-1.7V68c0-1.3,0-2.2-0.1-2.4s-0.2-0.5-0.3-0.6s-0.3-0.2-0.5-0.2c-0.2,0-0.5,0.1-0.8,0.2
				l-0.2-0.4l3.4-1.4h0.5V65.5z"/>
		</g>
		<path fill-rule="evenodd" clip-rule="evenodd" fill="#1A1A1A" d="M39,3.9c-0.1-0.3-1.2-2-1.4-2.1h-0.7V1.4c-0.5-0.4-1-0.6-1.8-0.7
			V0.4c-0.7-0.4-4.2-0.3-5,0v0.4c-0.7,0.1-1.4,0.2-2.1,0.4v0.4h-0.7v0.4h-0.7c-0.1,0.2-0.2,0.5-0.4,0.7h-0.7c-0.4,0.5-0.7,1-1.1,1.4
			c-0.2,0.1-0.5,0.2-0.7,0.4V5c-0.2,0.1-0.5,0.2-0.7,0.4c-0.4,0.6,0,0.8-0.7,1.4v0.4c-1.3-0.5-2.3-0.4-3.6,0h-1.4
			c-3.1,1.2-6.4,4.3-6.4,8.6c-1.1,0.4-2.1,0.7-3.2,1.1v0.4c-0.6,0.5-0.8,0.8-1.8,1.1c-0.3,0.9-0.6,1.1-1.1,1.8H4.3v0.7H3.9
			c-0.1,0.5-0.2,1-0.4,1.4H3.2v1.1H2.9v5c0,0,0.6,0.4,0.4,1.1H2.9c-0.1,0.4-0.2,0.7-0.4,1.1c-0.4,0.2-0.7,0.5-1.1,0.7
			c-0.6,0.8-1.7,4.9-1.1,5.7V39h0.4v0.4h1.8v0.4c0.7,0.1,1.4,0.2,2.1,0.4c0.7,1,1.4,1.9,2.1,2.9h1.8c0,0,0.1,0.3,0.7,0.4
			c-0.1-1.3-0.9-3.6-0.4-5.4h0.4c0.4-1,0.3-1.9,0.7-2.9h0.4v-0.7h0.4v-1.4h-0.4c-0.3-1.3,0-5.2,0.4-6.1h0.4v-0.7
			c0.2-0.1,0.5-0.2,0.7-0.4V25c0.5-0.4,1-0.7,1.4-1.1c0.1-0.2,0.2-0.5,0.4-0.7h0.7c0.1-0.2,0.2-0.5,0.4-0.7h0.7
			c0.9-0.7,0.8-2.9,1.4-3.9c0.6-0.5,1.2-1,1.8-1.4c0.1-0.2,0.2-0.5,0.4-0.7h0.7v-0.4c0.6-0.1,1.2-0.2,1.8-0.4v-0.4h1.1
			c0.8,1.2,1.7,2.4,2.5,3.6v1.4h0.4V24c0.4,0.2,0.7,0.5,1.1,0.7v0.7c0.2,0.1,0.5,0.2,0.7,0.4c0.1,0.8,0.2,1.7,0.4,2.5h0.4
			c-0.1,1.6-0.2,3.1-0.4,4.6c-0.3,0.7-1.8,2-1.4,3.2h0.4c0.1,0.5,0.2,1,0.4,1.4h0.4c0.1,1.4,0.2,2.9,0.4,4.3
			c1.1-0.1,2.1-0.2,3.2-0.4v-0.4h0.7c0.1-0.2,0.2-0.5,0.4-0.7c0.8-0.5,2.3-0.7,3.6-0.7v-0.4h0.4v-3.6h-0.4v-1.1H35
			c-0.1-0.4-0.2-0.7-0.4-1.1c0.2-0.1,0.5-0.2,0.7-0.4v-0.7h0.4c0.6-1.3,0.6-5.5,0-6.8h-0.4c-0.1-0.5-0.2-1-0.4-1.4h-0.4
			c-0.4-0.5-0.7-1-1.1-1.4c-0.2-0.1-0.5-0.2-0.7-0.4v-2.9h-0.4v-1.8h-0.4v-1.1h-0.4v-0.7c-0.4-0.2-0.7-0.5-1.1-0.7
			c-0.6-0.8-0.7-1.5-1.4-2.1c0-1.1-0.2-2.6,0.4-3.2L30,9.7c0.2,0.4,0.5,0.7,0.7,1.1h0.7v0.4h1.4v0.4c1-0.1,1.9-0.2,2.9-0.4
			c1.1-1.3,2.4-1.2,2.9-3.2H39V6.4h0.4V5H39V3.9z M42.6,10.7c0.7,0.1,1.4,0.2,2.1,0.4v0.4c1.2-0.2,2.4-0.5,3.6-0.7v-0.4
			c0.4-0.2,0.7-0.5,1.1-0.7V10h0.4v3.2h-0.4v0.7c-0.2,0.1-0.5,0.2-0.7,0.4V15c-0.5,0.4-1,0.7-1.4,1.1v1.1h-0.4v0.7h-0.4
			c-0.1,1.5-0.2,3.1-0.4,4.6c-0.4,0.2-0.7,0.5-1.1,0.7c-0.8,0.9-1.8,2.4-2.1,3.6v4.6c0.2,0.5,1.7,2.1,1.4,2.9
			c-0.2,0.1-0.5,0.2-0.7,0.4v1.1h-0.4c0,1.2-0.2,3,0.4,3.6c0.7,0.6,1.9,0.3,2.9,0.7v0.4h0.7v0.4h0.7c0.1,0.2,0.2,0.5,0.4,0.7h2.1
			v0.4h1.4c-0.5-1.5-0.2-2.6,0.4-3.9v-1.1h0.4c0.2-0.5,0.5-1,0.7-1.4c-0.2-0.1-0.5-0.2-0.7-0.4c-0.1-0.5-0.2-1-0.4-1.4h-0.4v-0.7
			h-0.4v-1.8h-0.4c-0.4-1.5,0.6-4.9,1.1-5.7h0.4v-0.7c0.4-0.2,0.7-0.5,1.1-0.7c0.1-1.5,0.2-3.1,0.4-4.6h0.4v-1.1
			c0.2-0.1,0.5-0.2,0.7-0.4v-0.7h0.4c0.5-0.6,1-1.2,1.4-1.8c2.7,0.5,5.1,2.4,6.1,4.6c0.1,0.7,0.2,1.4,0.4,2.1
			c0.3,0.5,1.3,0.4,1.8,0.7c0.1,0.2,0.2,0.5,0.4,0.7c0.7,0.6,1.4,1.2,2.1,1.8C68,26,69.3,30,69,31.1c-0.1,0.5-1,2.3-0.7,3.2h0.4
			c0.2,0.7,0.5,1.4,0.7,2.1h0.4c0.8,2,0.2,4.9,0,6.8c0.9-0.2,1.6-0.4,2.9-0.4c0.3-1.5,1.2-1.8,1.8-2.9c1.4-0.3,2.1-0.7,3.9-0.7V39
			h0.4c0.1-3,0.5-3.9-0.7-6.4v-0.7h-0.4v-0.7c-0.2-0.1-0.5-0.2-0.7-0.4V30c-0.1-0.1-0.5-0.3-0.7-0.7h-0.4c-0.1-0.3,0.7-2.7,0.7-2.9
			c0.3-1.2-1.3-5.7-1.8-6.4c-0.4-0.2-0.7-0.5-1.1-0.7v-0.7L73,17.9h-0.7c-0.2-0.4-0.5-0.7-0.7-1.1h-0.7v-0.4
			c-0.8-0.4-2.1-0.3-2.5-1.1v-1.8h-0.4v-0.7h-0.4v-1.1c-0.2-0.1-0.5-0.2-0.7-0.4c-2-3.1-5.1-5.2-10-4.3c-1.8-4-4.8-6-9.3-7.2
			c-1.2,0.1-2.4,0.2-3.6,0.4c-1.3,1.4-3,1.2-3.6,3.6c-0.9,1-0.4,2.3-0.4,3.9C40.9,8.8,41.7,9.8,42.6,10.7 M11.8,35h-0.4
			c-0.6,1.1-2,5.5-1.4,7.5h0.4V44h0.4l0.4,0.4v-0.7h0.4v-0.7c0.2-0.2,0.5-0.2,0.7-0.7h1.8c0.3-1.3,0.9-1.9,1.4-2.9
			c1-0.2,3.4-0.8,4.3,0c1.5,0.4,0.7,0.7,1.8,1.4v1.1c1.7,0,2.3,0.2,3.2,0.7v1.1c0.4-0.1,0.7-0.2,1.1-0.4c0.6-1.4,1.1-3.6,0.4-5.4
			c-0.2-0.4-1.6-1.9-1.4-2.5H25c0.1-0.4,0.2-0.7,0.4-1.1h0.4c0.4-0.7,1.4-4.1,1.1-5.4h-0.4v-1.8h-0.4c-0.1-0.5-0.2-1-0.4-1.4h-0.4
			V25c-0.5-0.4-1-0.7-1.4-1.1c-0.2-0.5,0.7-1.4,0.4-2.5c-0.5-1.6-1.2-3.5-2.5-4.3v-0.4c-0.3,0.1-1.2,0.2-1.4,0.4v0.4
			c-2.1,0.5-2.4,2.5-3.2,4.3v1.1c-0.3,0.5-2,0.7-2.5,1.1c-0.4,0.5-0.7,1-1.1,1.4h-0.4v0.7c-0.2,0.1-0.5,0.2-0.7,0.4v0.7h-0.4v1.1
			h-0.4v3.9h0.4c0.1,0.6,0.2,1.2,0.4,1.8c-0.2,0.1-0.5,0.2-0.7,0.4V35z M68.7,44.3c0.1-2.8,0.7-5.4-0.4-7.9h-0.4v-0.7h-0.4
			c-0.1-0.5-0.2-1-0.4-1.4c-0.2-0.1-0.5-0.2-0.7-0.4c0.1-0.6,0.2-1.2,0.4-1.8h0.4c0.6-1.9-0.5-5.5-1.1-6.4h-0.4
			c-0.5-0.6-1-1.2-1.4-1.8h-0.7c-0.1-0.2-0.2-0.5-0.4-0.7c-0.5-0.3-1.1,0.1-1.4-0.4c-0.1-1-0.2-1.9-0.4-2.9
			c-0.5-1.1-2.2-2.6-3.6-2.9c-0.4-0.4,0-0.2-0.7-0.4c-0.2,0.4-0.5,0.7-0.7,1.1h-0.4c-0.2,0.7-0.5,1.4-0.7,2.1h-0.4v1.8
			c0,0.1-0.5,0.1-0.4,0.7h0.4V24c-0.5,0.4-1,0.7-1.4,1.1c-1.7,2.5-1.8,8.7,0.7,10.4c-0.4,1.5-2.7,3.9-1.8,6.4h0.4v0.7h0.4
			c0.1,0.4,0.2,0.7,0.4,1.1h0.7c0.1-0.5,0.2-1,0.4-1.4c0.9-0.2,1.6-0.4,2.9-0.4c0.3-1.5,1.2-1.8,1.8-2.9c1.4,0,3.4-0.2,4.3,0.4v0.4
			c0.4,0.2,0.7,0.5,1.1,0.7c0.1,0.6,0.2,1.2,0.4,1.8h1.4v0.4c1.1,0.3,1.2,0.7,1.4,1.8H68.7z M25.4,67.2c1,0.8,1.9,1.7,2.9,2.5
			c0.4,0.5,0.7,1,1.1,1.4c0.8,0.6,1.5,0.7,2.1,1.4h0.4C31.6,71,30.2,70,29.3,69c-0.2-0.1-0.5-0.2-0.7-0.4v-0.7
			c-0.4-0.2-0.7-0.5-1.1-0.7v-0.7c-0.2-0.1-0.5-0.2-0.7-0.4c-0.1-0.4-0.2-0.7-0.4-1.1h-0.4v-0.7h-0.4c-0.2-0.7-0.5-1.4-0.7-2.1h-0.4
			c-0.1-0.7-0.2-1.4-0.4-2.1H24c-0.1-1-0.2-1.9-0.4-2.9h-0.4V54h-0.4c0.1-2,0.2-4.1,0.4-6.1h0.4v-1.4H24c0.4-1.3,0.3-2.5-0.4-3.2
			c-0.1-0.2-0.2-0.5-0.4-0.7h-2.5v-1.1h-0.4c-0.4-1.4-0.1-0.5-1.1-1.1v-0.4c-1.6-0.9-3.1,0.1-4.3,0.7c-0.1,0.7-0.2,1.4-0.4,2.1
			c-0.7,0.1-1.4,0.2-2.1,0.4v0.4c-0.6,0.4-0.5,0.2-0.7,1.1c-0.8,1.2,1.2,8.4,1.8,9.7c0.1,0.6,0.2,1.2,0.4,1.8h0.4
			c0.2,0.7,0.5,1.4,0.7,2.1h0.4V59h0.4c0.2,0.7,0.5,1.4,0.7,2.1c0.2,0.1,0.5,0.2,0.7,0.4c0.1,0.5,0.2,1,0.4,1.4
			c0.2,0.1,0.5,0.2,0.7,0.4c0.1,0.4,0.2,0.7,0.4,1.1c0.4,0.2,0.7,0.5,1.1,0.7v0.7c1.1,1,2.1,1.9,3.2,2.9c0.5,0.6,1,1.2,1.4,1.8H25
			c0.2,0.4,0.5,0.7,0.7,1.1h0.7c0.1,0.2,0.2,0.5,0.4,0.7c0.9,0.6,2.8,1.5,3.9,1.8c-0.3-1.8-1.1-1.5-2.1-2.5c-0.8-1-1.7-1.9-2.5-2.9
			c-0.4-0.2-0.7-0.5-1.1-0.7v-0.7c-0.5-0.4-1-0.7-1.4-1.1v-0.7c-0.2-0.1-0.5-0.2-0.7-0.4c-0.1-0.4-0.2-0.7-0.4-1.1h-0.4
			c-0.2-0.7-0.5-1.4-0.7-2.1h-0.4v-0.7h-0.4c-0.2-0.7-0.5-1.4-0.7-2.1h-0.4c-0.1-0.7-0.2-1.4-0.4-2.1H19v-0.7h-0.4v-1.4
			c-0.8-2.2-1.4-5.2-1.4-8.2h1.1C18.3,55.6,21.5,61.9,25.4,67.2 M48.6,72.9h-0.4V74c1.1-0.2,3-1.2,3.9-1.8c0.1-0.2,0.2-0.5,0.4-0.7
			h0.7c0.1-0.2,0.2-0.5,0.4-0.7h0.7c0.5-0.6,1-1.2,1.4-1.8c1.3-1.2,2.6-2.4,3.9-3.6v-0.7c0.4-0.2,0.7-0.5,1.1-0.7v-0.7
			c0.2-0.1,0.5-0.2,0.7-0.4v-0.7c0.2-0.1,0.5-0.2,0.7-0.4c0.1-0.5,0.2-1,0.4-1.4c0.2-0.1,0.5-0.2,0.7-0.4v-0.7h0.4
			c0.1-0.5,0.2-1,0.4-1.4h0.4v-1.1h0.4c0.1-0.5,0.2-1,0.4-1.4h0.4v-1.1h0.4c0.9-2.3,1.2-5,1.4-7.9c0.1-0.6,0.2-1.2,0.4-1.8h-0.4
			c-0.1-0.4-0.2-0.7-0.4-1.1c-0.8-0.3-1.4-0.6-2.5-0.7v-1.4H64c-0.4-1.4-0.1-0.5-1.1-1.1v-0.4c-1.5-0.8-2.6,0-3.9,0.4
			c-0.2,0.7-0.5,1.4-0.7,2.1h-2.1v0.4c-0.4,0.1-0.7,0.2-1.1,0.4c0,0.7-0.4,1.8-0.4,1.8h0.4v1.1h0.4v1.8h0.4v2.1h0.4
			c0.6,1.9-0.3,5.8-0.7,7.2V59h-0.4c-0.2,1.1-0.5,2.1-0.7,3.2H54v0.7h-0.4c-0.2,0.7-0.5,1.4-0.7,2.1c-0.2,0.1-0.5,0.2-0.7,0.4
			c-1.5,2.3-2.7,4.7-5,6.1c0.2,0.7-0.1,0.3,0.4,0.7c0.3,0.4,0,0.1,0.4,0.4c1.9-1.8,3.8-3.6,5.7-5.4c3.7-5.2,7.3-11.8,7.1-20.7h1.1
			c-0.1,8.8-3.7,15.9-7.5,21.1C52.4,69.4,50.5,71.2,48.6,72.9 M35,71.2c-2,0.1-2.2,0.8-2.9,2.1h-0.4v1.4h-0.4
			c0.1,0.7,0.2,1.4,0.4,2.1c-1.7-0.5-3.3-1-5-1.4v-0.4c-0.7-0.2-1.4-0.5-2.1-0.7V74c-0.7-0.2-1.4-0.5-2.1-0.7
			c-0.1-0.2-0.2-0.5-0.4-0.7c-0.5-0.1-1-0.2-1.4-0.4c-0.1-0.2-0.2-0.5-0.4-0.7h-0.7c-0.4-0.5-0.7-1-1.1-1.4h-0.7
			c-0.5-0.6-1-1.2-1.4-1.8c-1.1-1-2.1-1.9-3.2-2.9v-0.7c-0.5-0.4-1-0.7-1.4-1.1v-0.7c-0.2-0.1-0.5-0.2-0.7-0.4
			c-0.1-0.4-0.2-0.7-0.4-1.1h-0.4v-0.7c-0.2-0.1-0.5-0.2-0.7-0.4c-0.1-0.5-0.2-1-0.4-1.4c-0.2-0.1-0.5-0.2-0.7-0.4v-0.7H8.2v-0.7
			H7.9v-1.1H7.5c-0.1-0.5-0.2-1-0.4-1.4H6.8v-1.1c-0.7-1.7-1.6-3.8-1.8-6.1c0.7,0.2,0.3,0,0.7,0.4c0.6,2.1,1.2,4.3,1.8,6.4h0.4
			c0.1,0.5,0.2,1,0.4,1.4h0.4v1.1h0.4v0.7h0.4v0.7c0.2,0.1,0.5,0.2,0.7,0.4c0.2,0.7,0.5,1.4,0.7,2.1c0.2,0.1,0.5,0.2,0.7,0.4v0.7
			c0.2,0.1,0.5,0.2,0.7,0.4c0.1,0.4,0.2,0.7,0.4,1.1c0.4,0.2,0.7,0.5,1.1,0.7v0.7c0.6,0.5,1.2,1,1.8,1.4c1.1,1.2,2.1,2.4,3.2,3.6
			h0.7c0.2,0.4,0.5,0.7,0.7,1.1h0.7c0.1,0.2,0.2,0.5,0.4,0.7c0.4,0.1,0.7,0.2,1.1,0.4v0.4c0.5,0.1,1,0.2,1.4,0.4
			c0.1,0.2,0.2,0.5,0.4,0.7h0.7v0.4h0.7V74c0.6,0.1,1.2,0.2,1.8,0.4v0.4h1.1v0.4c0.7,0.1,1.4,0.2,2.1,0.4v0.4h0.4v-0.7
			c-1.5-0.8-3.1-1.7-4.6-2.5c-0.1-0.2-0.2-0.5-0.4-0.7H25c-0.2-0.4-0.5-0.7-0.7-1.1h-0.7c-1-1.1-1.9-2.1-2.9-3.2
			c-0.6-0.5-1.2-1-1.8-1.4v-0.7c-0.4-0.2-0.7-0.5-1.1-0.7V64c-0.2-0.1-0.5-0.2-0.7-0.4c-0.1-0.4-0.2-0.7-0.4-1.1h-0.4v-0.7
			c-0.2-0.1-0.5-0.2-0.7-0.4c-0.2-0.7-0.5-1.4-0.7-2.1c-0.2-0.1-0.5-0.2-0.7-0.4v-0.7h-0.4v-1.1h-0.4c-0.1-0.5-0.2-1-0.4-1.4h-0.4
			v-1.1h-0.4V54h-0.4c-0.5-2.9-1-5.7-1.4-8.6c0-0.1-0.8-0.6-1.1-1.1C7.8,44,8,43.6,6.1,44c-0.3-1.3-0.9-1.8-1.4-2.9
			c-0.5-0.1-1-0.2-1.4-0.4v-0.4H1.8v-0.4c-0.9,0-1.2,0.1-1.8,0.4c0,7.5,2.4,13.4,5,18.2v0.7h0.4v0.7l0.7,0.7v0.7h0.4
			c0.1,0.4,0.2,0.7,0.4,1.1c0.2,0.1,0.5,0.2,0.7,0.4v0.7c0.5,0.4,1,0.7,1.4,1.1v0.7c0.4,0.2,0.7,0.5,1.1,0.7
			c0.7,0.8,1.4,1.7,2.1,2.5h0.7c0.4,0.5,0.7,1,1.1,1.4h0.7c0.2,0.4,0.5,0.7,0.7,1.1h0.7c0.1,0.2,0.2,0.5,0.4,0.7h0.7
			c0.1,0.2,0.2,0.5,0.4,0.7c0.4,0.1,0.7,0.2,1.1,0.4v0.4c0.7,0.2,1.4,0.5,2.1,0.7c0.1,0.2,0.2,0.5,0.4,0.7h0.7v0.4h0.7v0.4h1.1v0.4
			h0.7v0.4h1.1v0.4h0.7v0.4c0.7,0.1,1.4,0.2,2.1,0.4v0.4c1.1,0.1,2.1,0.2,3.2,0.4c1.4,0.4,4.4,1,5.7,0.4V78h0.7
			c0.2-0.4,0.5-0.7,0.7-1.1H39v-1.1h0.4c0-2.5-0.6-2.8-1.4-4.3C36.9,71.3,35.8,70.5,35,71.2 M78.7,40.1c-1.1,0-2.3,0.2-2.9,0.7
			c-1.4,0.4-2.6,1.7-2.9,3.2c-0.7-0.2-0.3,0-0.7-0.4c-1.8,0.2-2.8,0.7-3.6,1.8h-0.4c-0.1,1.2-0.2,2.4-0.4,3.6h-0.4v2.5h-0.4v1.4
			h-0.4V54h-0.4v1.1c-1.7,3.9-4,7.8-6.4,11.1c-1,0.8-1.9,1.7-2.9,2.5c-0.6,0.7-1.2,1.4-1.8,2.1h-0.7c-0.2,0.4-0.5,0.7-0.7,1.1h-0.7
			c-0.2,0.4-0.5,0.7-0.7,1.1c-0.5,0.1-1,0.2-1.4,0.4c-0.1,0.2-0.2,0.5-0.4,0.7h-0.7v0.4c-0.7,0.4-0.9,0.1-1.4,0.7h-0.4v0.7
			c0.8-0.3,1.8-0.8,2.5-1.1h1.1v-0.4c0.7-0.2,1.4-0.5,2.1-0.7v-0.4h0.7v-0.4h0.7v-0.4c0.5-0.1,1-0.2,1.4-0.4
			c0.1-0.2,0.2-0.5,0.4-0.7h0.7c0.1-0.2,0.2-0.5,0.4-0.7H59c0.2-0.4,0.5-0.7,0.7-1.1h0.7c0.5-0.6,1-1.2,1.4-1.8
			c1.2-1.1,2.4-2.1,3.6-3.2V64c0.5-0.4,1-0.7,1.4-1.1v-0.7c0.2-0.1,0.5-0.2,0.7-0.4c0.1-0.4,0.2-0.7,0.4-1.1h0.4
			c0.1-0.5,0.2-1,0.4-1.4c0.2-0.1,0.5-0.2,0.7-0.4c0.1-0.5,0.2-1,0.4-1.4c1.5-2.8,2.9-6.3,3.6-10H74c-0.2,2.3-1,4.4-1.8,6.1v1.1
			h-0.4v0.7h-0.4v1.1h-0.4c-0.1,0.5-0.2,1-0.4,1.4h-0.4c-0.1,0.5-0.2,1-0.4,1.4c-0.2,0.1-0.5,0.2-0.7,0.4c-0.1,0.5-0.2,1-0.4,1.4
			h-0.4c-0.1,0.4-0.2,0.7-0.4,1.1c-0.2,0.1-0.5,0.2-0.7,0.4v0.7c-0.5,0.4-1,0.7-1.4,1.1v0.7c-1.2,1.1-2.4,2.1-3.6,3.2
			c-0.6,0.7-1.2,1.4-1.8,2.1h-0.7c-0.2,0.4-0.5,0.7-0.7,1.1h-0.7c-0.1,0.2-0.2,0.5-0.4,0.7h-0.7c-0.1,0.2-0.2,0.5-0.4,0.7
			c-0.5,0.1-1,0.2-1.4,0.4v0.4h-0.7V74h-0.7v0.4c-0.7,0.2-1.4,0.5-2.1,0.7v0.4h-1.1v0.4c-1.2,0.2-2.4,0.5-3.6,0.7v0.4h-0.4
			c0.1-0.8,0.2-1.7,0.4-2.5c-0.4-1.4-1.5-2.1-2.1-3.2c-0.7-0.1-1.4-0.2-2.1-0.4v0.4h-1.4v0.4h-0.7c-0.2,0.1-0.3,0.5-0.7,0.7
			c-0.3,1.5-1.3,3.1,0,4.3c1.1,4,10,1,12.5,0H54v-0.4h0.7v-0.4h1.1v-0.4c0.5-0.1,1-0.2,1.4-0.4v-0.4c0.5-0.1,1-0.2,1.4-0.4
			c0.1-0.2,0.2-0.5,0.4-0.7c0.5-0.1,1-0.2,1.4-0.4c0.1-0.2,0.2-0.5,0.4-0.7h0.7c0.1-0.2,0.2-0.5,0.4-0.7h0.7
			c0.1-0.2,0.2-0.5,0.4-0.7h0.7c0.1-0.2,0.2-0.5,0.4-0.7h0.7c0.4-0.5,0.7-1,1.1-1.4h0.7c0.5-0.6,1-1.2,1.4-1.8
			c0.8-0.7,1.7-1.4,2.5-2.1v-0.7c0.4-0.2,0.7-0.5,1.1-0.7v-0.7c0.2-0.1,0.5-0.2,0.7-0.4v-0.7c0.2-0.1,0.5-0.2,0.7-0.4
			c0.1-0.5,0.2-1,0.4-1.4c0.2-0.1,0.5-0.2,0.7-0.4c0.4-1.1,0.7-2.1,1.1-3.2h0.4c0.1-0.5,0.2-1,0.4-1.4h0.4V54h0.4v-1.1h0.4v-1.1h0.4
			v-1.1h0.4v-1.1H78v-1.8h0.4c0.4-1.3,0-3.4,0.7-4.3C79,42.3,79,40.9,78.7,40.1 M32.5,41.1v0.4h-0.7c-0.2,0.4-0.5,0.7-0.7,1.1h-3.6
			c-0.7,0.6-1.4,1.2-2.1,1.8c-0.5,1.7-1,3.3-1.4,5v5.7h0.4c0.1,1.3,0.2,2.6,0.4,3.9c1.4,4.1,4.6,10.5,8.2,12.2v-0.4h0.4
			c0-0.6-1-0.8-1.1-1.1V69h0.7c0.2,0.9,0.4,0.8,0.7,1.4c0.7-0.2,0.3,0,0.7-0.4h0.4c-0.6-1-0.9-2-1.4-3.2h-0.4
			c-0.6-1.5-2.2-8.2-1.4-10.7h0.4V54h0.4v-1.8h0.4c0.1-0.7,0.2-1.4,0.4-2.1h0.4v-0.7h0.4c0.1-0.6,0.2-1.2,0.4-1.8
			c0.2-0.1,0.5-0.2,0.7-0.4c0.1-0.5,0.2-1,0.4-1.4c0.2-0.1,0.5-0.2,0.7-0.4v-0.7c0.2-0.1,0.5-0.2,0.7-0.4V44
			c0.2-0.1,0.5-0.2,0.7-0.4v-0.7h0.4c0.5-0.6,0.8-0.9,1.1-1.8c-0.6-0.1-1.2-0.2-1.8-0.4v-0.4C35,40.4,33.7,40.5,32.5,41.1
			 M45.8,70.8c0.4,0.1,0.7,0.2,1.1,0.4c0.6-0.7,1.2-1.4,1.8-2.1c0.2-0.1,0.5-0.2,0.7-0.4v-0.7c0.4-0.2,0.7-0.5,1.1-0.7v-0.7
			c0.2-0.1,0.5-0.2,0.7-0.4v-0.7c0.2-0.1,0.5-0.2,0.7-0.4c0.1-0.5,0.2-1,0.4-1.4h0.4c0.1-0.5,0.2-1,0.4-1.4h0.4v-1.1h0.4v-1.1H54V59
			h0.4v-1.4h0.4v-2.1h0.4V49h-0.4v-1.8h-0.4c-0.1-0.7-0.2-1.4-0.4-2.1h-0.4c-1.2-2.3-2.2-2.9-5.4-2.1c-0.4-0.5-0.7-1-1.1-1.4h-0.7
			v-0.4c-2.2-1.2-4-0.5-6.1,0c0.4,1.6,1.1,1.2,1.8,2.1V44c0.4,0.2,0.7,0.5,1.1,0.7v0.7c0.2,0.1,0.5,0.2,0.7,0.4v0.7
			c0.2,0.1,0.5,0.2,0.7,0.4c0.1,0.5,0.2,1,0.4,1.4h0.4c0.1,0.5,0.2,1,0.4,1.4h0.4c0.1,0.8,0.2,1.7,0.4,2.5c0.5,1.6,1.8,6.9,1.1,9.7
			h-0.4v1.8h-0.4c-0.1,0.8-0.2,1.7-0.4,2.5h-0.4c-0.1,0.5-0.2,1-0.4,1.4h-0.4v0.7h-0.4c-0.4,0.7-0.1,0.9-0.7,1.4v0.4
			c0.4,0.1,0.7,0.2,1.1,0.4c1-1.8,2.8-3,3.2-5.4h0.7c-0.5,2.3-2.2,3.6-3.2,5.4C45.7,70.8,46.1,70.4,45.8,70.8"/>
	</g>
</g>
</svg>
